<?xml version="1.0" standalone="no"?>
<!DOCTYPE svg PUBLIC "-//W3C//DTD SVG 20010904//EN"
 "http://www.w3.org/TR/2001/REC-SVG-20010904/DTD/svg10.dtd">
<svg version="1.0" xmlns="http://www.w3.org/2000/svg"
 width="32.000000pt" height="32.000000pt" viewBox="0 0 32.000000 32.000000"
 preserveAspectRatio="xMidYMid meet">

<g transform="translate(0.000000,32.000000) scale(0.100000,-0.100000)"
fill="#000000" stroke="none">
<path d="M84 266 c-26 -26 -34 -43 -34 -69 0 -57 8 -69 31 -46 10 10 19 25 19
32 0 26 31 57 59 57 32 0 51 -16 51 -43 0 -11 11 -30 24 -42 20 -19 26 -20 30
-8 28 71 -28 153 -104 153 -34 0 -48 -6 -76 -34z"/>
</g>
</svg>
